<svg width="151" height="53" viewBox="0 0 151 53" fill="none" xmlns="http://www.w3.org/2000/svg">
<path d="M76.1819 32.5238L76.3961 36.612L65.252 37.1961L65.0377 33.1079L76.1819 32.5238ZM65.9893 15.0508L67.1447 37.0969L61.83 37.3754L60.6746 15.3293L65.9893 15.0508ZM87.9534 28.5211L93.2529 28.2433C93.2627 29.7814 92.9197 31.1557 92.224 32.3663C91.5283 33.5769 90.5263 34.5455 89.2182 35.272C87.9196 35.9879 86.3618 36.3934 84.5448 36.4886C83.071 36.5659 81.7408 36.3876 80.554 35.9538C79.3773 35.5195 78.3609 34.8592 77.5047 33.9728C76.6585 33.0859 75.9888 31.9924 75.4956 30.6923C75.0124 29.3916 74.7274 27.9135 74.6407 26.258L74.578 25.0619C74.4912 23.4064 74.6302 21.9061 74.995 20.561C75.3693 19.2053 75.9359 18.0419 76.6948 17.0709C77.4632 16.0893 78.4048 15.3213 79.5195 14.7669C80.6343 14.2125 81.8882 13.8987 83.2812 13.8257C85.1991 13.7252 86.8372 13.9835 88.1956 14.6006C89.5539 15.2178 90.628 16.1079 91.4177 17.271C92.2069 18.4241 92.7071 19.7593 92.9182 21.2766L87.6187 21.5544C87.5551 20.7277 87.3775 20.0436 87.086 19.5022C86.7939 18.9507 86.3578 18.5484 85.7777 18.2954C85.1976 18.0424 84.4382 17.9405 83.4994 17.9897C82.8433 18.024 82.2793 18.1751 81.8075 18.4427C81.3356 18.7104 80.952 19.1151 80.6564 19.657C80.3609 20.1988 80.1544 20.8929 80.0368 21.7392C79.9287 22.5748 79.9054 23.5781 79.9668 24.7491L80.0311 25.9756C80.0924 27.1465 80.2155 28.1421 80.4002 28.9625C80.5849 29.7828 80.8474 30.4472 81.1879 30.9557C81.5283 31.4642 81.9524 31.8317 82.4603 32.0581C82.9777 32.2739 83.5998 32.3628 84.3266 32.3247C85.1341 32.2824 85.8089 32.1205 86.3509 31.8391C86.8923 31.5475 87.3007 31.1313 87.576 30.5906C87.8508 30.0397 87.9766 29.3499 87.9534 28.5211ZM108.454 21.6012L108.668 25.6894L97.3577 26.2821L97.1434 22.1939L108.454 21.6012ZM98.4563 13.3493L99.6117 35.3954L94.297 35.6739L93.1417 13.6278L98.4563 13.3493ZM111.569 12.6621L112.724 34.7082L107.425 34.9859L106.269 12.9398L111.569 12.6621ZM122.943 16.7121L118.48 34.4065L112.772 34.7057L119.717 12.2351L123.336 12.0454L122.943 16.7121ZM128.307 33.8915L122.004 16.7613L121.064 12.1645L124.729 11.9724L134.03 33.5916L128.307 33.8915ZM127.664 25.6808L127.879 29.7841L116.568 30.3769L116.353 26.2735L127.664 25.6808ZM141.492 11.0939L142.648 33.1399L137.333 33.4185L136.178 11.3724L141.492 11.0939ZM148.124 10.7463L148.339 14.8497L129.912 15.8154L129.697 11.712L148.124 10.7463Z" fill="white"/>
<path fill-rule="evenodd" clip-rule="evenodd" d="M45.4308 16.134L43.9856 21.61L44.0359 21.8793L15.9406 17.4295C13.4771 17.0393 11.1637 18.72 10.7735 21.1835L9.75765 27.5976C9.19694 31.1378 10.3905 34.5508 12.695 36.9514L7.73764 41.332L14.6438 47.0336L14.6595 47.0106L14.6585 47.017L25.0215 41.1626L43.6984 44.1208C46.1619 44.5109 48.4753 42.8302 48.8655 40.3667L50.8972 27.5385C51.0936 26.2987 50.7654 25.0969 50.0769 24.1591L45.4308 16.134Z" fill="white"/>
<path fill-rule="evenodd" clip-rule="evenodd" d="M10.3817 9.77911C7.91826 9.38893 5.6049 11.0697 5.21472 13.5332L3.18294 26.3614C2.79276 28.8249 4.47351 31.1382 6.937 31.5284L10.2579 32.0544L9.09973 39.3665L19.4626 33.5123L38.1396 36.4704C40.6031 36.8606 42.9164 35.1798 43.3066 32.7163L45.3384 19.8881C45.7286 17.4247 44.0478 15.1113 41.5843 14.7211L10.3817 9.77911Z" fill="#0D2759"/>
<path d="M5.21472 13.5332L4.18427 13.37L5.21472 13.5332ZM3.18294 26.3614L4.21339 26.5246L3.18294 26.3614ZM10.2579 32.0544L11.2883 32.2176L11.4515 31.1871L10.4211 31.0239L10.2579 32.0544ZM9.09973 39.3665L8.06927 39.2033L7.73118 41.338L9.61289 40.2749L9.09973 39.3665ZM19.4626 33.5123L19.6258 32.4818L19.2663 32.4249L18.9494 32.6039L19.4626 33.5123ZM43.3066 32.7163L42.2762 32.5531L43.3066 32.7163ZM45.3384 19.8881L46.3689 20.0514L45.3384 19.8881ZM6.24518 13.6964C6.54522 11.802 8.32415 10.5095 10.2185 10.8096L10.545 8.74866C7.51236 8.26834 4.66458 10.3374 4.18427 13.37L6.24518 13.6964ZM4.21339 26.5246L6.24518 13.6964L4.18427 13.37L2.15248 26.1982L4.21339 26.5246ZM7.10021 30.4979C5.20582 30.1979 3.91335 28.419 4.21339 26.5246L2.15248 26.1982C1.67216 29.2308 3.7412 32.0785 6.7738 32.5589L7.10021 30.4979ZM10.4211 31.0239L7.10021 30.4979L6.7738 32.5589L10.0947 33.0848L10.4211 31.0239ZM10.1302 39.5298L11.2883 32.2176L9.22741 31.8912L8.06927 39.2033L10.1302 39.5298ZM18.9494 32.6039L8.58656 38.4582L9.61289 40.2749L19.9758 34.4206L18.9494 32.6039ZM38.3028 35.44L19.6258 32.4818L19.2994 34.5427L37.9764 37.5009L38.3028 35.44ZM42.2762 32.5531C41.9761 34.4475 40.1972 35.74 38.3028 35.44L37.9764 37.5009C41.009 37.9812 43.8568 35.9121 44.3371 32.8796L42.2762 32.5531ZM44.308 19.7249L42.2762 32.5531L44.3371 32.8796L46.3689 20.0514L44.308 19.7249ZM41.4211 15.7516C43.3155 16.0516 44.608 17.8306 44.308 19.7249L46.3689 20.0514C46.8492 17.0188 44.7802 14.171 41.7476 13.6907L41.4211 15.7516ZM10.2185 10.8096L41.4211 15.7516L41.7476 13.6907L10.545 8.74866L10.2185 10.8096Z" fill="white"/>
<path d="M18.8206 19.2812C18.8981 18.7924 19.3571 18.4589 19.8459 18.5363L21.616 18.8167C22.1048 18.8941 22.4383 19.3531 22.3609 19.8419L21.66 24.2672C21.5826 24.756 21.1235 25.0895 20.6347 25.0121L18.8646 24.7317C18.3758 24.6543 18.0423 24.1953 18.1197 23.7065L18.8206 19.2812Z" fill="white"/>
<path d="M31.9256 22.035C32.2195 22.2144 32.3646 22.5551 32.3107 22.8952L32.0611 24.4711C31.9578 25.1232 31.1996 25.455 30.6141 25.1499C30.0723 24.8676 29.4338 24.591 28.8806 24.5034C28.3274 24.4158 27.6347 24.4815 27.0321 24.5826C26.381 24.6919 25.7624 24.1419 25.8657 23.4898L26.1153 21.9139C26.1691 21.5739 26.4124 21.2947 26.7474 21.2148C27.4249 21.0534 28.596 20.8293 29.4413 20.9632C30.2866 21.0971 31.3311 21.6721 31.9256 22.035Z" fill="white"/>
<path d="M48.7348 7.49542C49.0307 7.05441 49.6558 6.99348 50.0313 7.36903L50.9861 8.32377C51.355 8.69272 51.3037 9.30481 50.8785 9.60724L45.7568 13.2502C45.6059 13.3575 45.3997 13.3403 45.2688 13.2094V13.2094C45.1407 13.0812 45.1211 12.8804 45.2221 12.7299L48.7348 7.49542Z" fill="white"/>
<path d="M41.3117 7.63711C41.1786 7.10487 41.5812 6.58929 42.1298 6.58929L43.3798 6.58929C43.9166 6.58929 44.3168 7.08432 44.2043 7.60927L43.2254 12.1777C43.186 12.3612 43.0239 12.4923 42.8362 12.4923V12.4923C42.6536 12.4923 42.4944 12.368 42.4501 12.1908L41.3117 7.63711Z" fill="white"/>
<path d="M51.8151 13.3523C52.3473 13.2193 52.8629 13.6218 52.8629 14.1705L52.8629 15.4204C52.8629 15.9573 52.3679 16.3575 51.8429 16.245L47.2745 15.266C47.091 15.2267 46.9599 15.0645 46.9599 14.8769V14.8769C46.9599 14.6943 47.0842 14.5351 47.2614 14.4908L51.8151 13.3523Z" fill="white"/>
</svg>
