<svg width="92" height="90" viewBox="0 0 92 90" fill="none" xmlns="http://www.w3.org/2000/svg">
<path fill-rule="evenodd" clip-rule="evenodd" d="M76.4128 28.1497L73.9676 37.4151L74.0526 37.8706L26.5156 30.3415C22.3474 29.6813 18.4332 32.5251 17.773 36.6933L16.0541 47.5459C15.1054 53.536 17.1249 59.3108 21.0243 63.3725L12.6363 70.7847L24.3214 80.4318L24.3479 80.3929L24.3463 80.4033L41.8803 70.4978L73.4817 75.503C77.6499 76.1631 81.564 73.3193 82.2242 69.1511L85.662 47.4459C85.9943 45.3478 85.4388 43.314 84.2734 41.7272L76.4128 28.1497Z" fill="#0D2759"/>
<path fill-rule="evenodd" clip-rule="evenodd" d="M17.11 17.3974C12.9418 16.7372 9.02762 19.581 8.36744 23.7492L4.92968 45.4545C4.2695 49.6227 7.11332 53.5368 11.2815 54.197L16.9003 55.087L14.9408 67.459L32.4745 57.5537L64.0761 62.5589C68.2443 63.219 72.1585 60.3752 72.8187 56.207L76.2564 34.5018C76.9166 30.3336 74.0728 26.4194 69.9046 25.7592L17.11 17.3974Z" fill="white"/>
<path d="M8.36744 23.7492L6.62392 23.4731L8.36744 23.7492ZM4.92968 45.4545L6.6732 45.7306L4.92968 45.4545ZM16.9003 55.087L18.6438 55.3631L18.92 53.6196L17.1765 53.3434L16.9003 55.087ZM14.9408 67.459L13.1973 67.1828L12.6252 70.7946L15.809 68.9959L14.9408 67.459ZM32.4745 57.5537L32.7507 55.8101L32.1424 55.7138L31.6062 56.0167L32.4745 57.5537ZM64.0761 62.5589L63.8 64.3024L64.0761 62.5589ZM72.8187 56.207L74.5622 56.4832L72.8187 56.207ZM76.2564 34.5018L74.5129 34.2256L76.2564 34.5018ZM10.111 24.0254C10.6186 20.8201 13.6286 18.6332 16.8339 19.1409L17.3862 15.6539C12.255 14.8412 7.43661 18.342 6.62392 23.4731L10.111 24.0254ZM6.6732 45.7306L10.111 24.0254L6.62392 23.4731L3.18615 45.1783L6.6732 45.7306ZM11.5577 52.4535C8.35239 51.9458 6.16553 48.9359 6.6732 45.7306L3.18615 45.1783C2.37346 50.3094 5.87426 55.1279 11.0054 55.9405L11.5577 52.4535ZM17.1765 53.3434L11.5577 52.4535L11.0054 55.9405L16.6242 56.8305L17.1765 53.3434ZM16.6843 67.7351L18.6438 55.3631L15.1568 54.8108L13.1973 67.1828L16.6843 67.7351ZM31.6062 56.0167L14.0725 65.922L15.809 68.9959L33.3428 59.0906L31.6062 56.0167ZM64.3522 60.8153L32.7507 55.8101L32.1984 59.2972L63.8 64.3024L64.3522 60.8153ZM71.0751 55.9309C70.5675 59.1362 67.5575 61.323 64.3522 60.8153L63.8 64.3024C68.9311 65.1151 73.7495 61.6143 74.5622 56.4832L71.0751 55.9309ZM74.5129 34.2256L71.0751 55.9309L74.5622 56.4832L78 34.7779L74.5129 34.2256ZM69.6284 27.5027C72.8337 28.0104 75.0206 31.0204 74.5129 34.2256L78 34.7779C78.8126 29.6468 75.3119 24.8284 70.1807 24.0157L69.6284 27.5027ZM16.8339 19.1409L69.6284 27.5027L70.1807 24.0157L17.3862 15.6539L16.8339 19.1409Z" fill="#0D2759"/>
<path d="M31.3886 33.4747C31.5196 32.6476 32.2963 32.0834 33.1233 32.2144L36.1183 32.6887C36.9454 32.8197 37.5097 33.5964 37.3787 34.4234L36.1928 41.911C36.0618 42.7381 35.2851 43.3023 34.4581 43.1713L31.463 42.697C30.636 42.566 30.0717 41.7893 30.2027 40.9623L31.3886 33.4747Z" fill="#0D2759"/>
<path d="M53.5619 38.1341C54.0592 38.4377 54.3047 39.0142 54.2136 39.5896L53.7913 42.256C53.6165 43.3593 52.3336 43.9208 51.343 43.4046C50.4262 42.9268 49.3458 42.4589 48.4098 42.3107C47.4738 42.1624 46.3018 42.2736 45.2822 42.4447C44.1805 42.6295 43.1339 41.699 43.3086 40.5957L43.731 37.9293C43.8221 37.3539 44.2338 36.8815 44.8005 36.7464C45.9468 36.4732 47.9283 36.0941 49.3585 36.3206C50.7888 36.5471 52.5561 37.52 53.5619 38.1341Z" fill="#0D2759"/>
<path d="M82.0031 13.5333C82.5039 12.7871 83.5614 12.684 84.1968 13.3194L85.8123 14.9348C86.4365 15.5591 86.3498 16.5947 85.6303 17.1065L76.9644 23.2704C76.7092 23.4519 76.3602 23.4227 76.1387 23.2012C75.9219 22.9844 75.8888 22.6445 76.0596 22.39L82.0031 13.5333Z" fill="#0D2759"/>
<path d="M69.4433 13.7729C69.2181 12.8723 69.8993 12 70.8275 12L72.9424 12C73.8508 12 74.5279 12.8376 74.3376 13.7258L72.6812 21.4555C72.6147 21.766 72.3403 21.9878 72.0228 21.9878C71.7138 21.9878 71.4444 21.7775 71.3695 21.4778L69.4433 13.7729Z" fill="#0D2759"/>
<path d="M87.215 23.4432C88.1155 23.2181 88.9879 23.8992 88.9879 24.8275L88.9879 26.9424C88.9879 27.8507 88.1503 28.5278 87.2621 28.3375L79.5323 26.6811C79.2219 26.6146 79.0001 26.3402 79.0001 26.0227C79.0001 25.7137 79.2104 25.4444 79.5101 25.3694L87.215 23.4432Z" fill="#0D2759"/>
</svg>
