<svg width="151" height="50" viewBox="0 0 151 50" fill="none" xmlns="http://www.w3.org/2000/svg">
<path d="M75.9241 29.5256L76.1384 33.6139L64.9942 34.1979L64.78 30.1097L75.9241 29.5256ZM65.7315 12.0527L66.8869 34.0987L61.5722 34.3772L60.4168 12.3312L65.7315 12.0527ZM87.6956 25.5229L92.9952 25.2452C93.0049 26.7832 92.662 28.1575 91.9662 29.3682C91.2705 30.5788 90.2686 31.5473 88.9604 32.2738C87.6618 32.9897 86.104 33.3952 84.2871 33.4905C82.8133 33.5677 81.483 33.3894 80.2962 32.9556C79.1196 32.5213 78.1031 31.861 77.2469 30.9746C76.4008 30.0878 75.7311 28.9942 75.2378 27.6941C74.7546 26.3934 74.4697 24.9154 74.3829 23.2599L74.3202 22.0637C74.2335 20.4082 74.3725 18.9079 74.7372 17.5628C75.1115 16.2071 75.6781 15.0437 76.437 14.0727C77.2055 13.0911 78.1471 12.3231 79.2618 11.7687C80.3765 11.2143 81.6304 10.9006 83.0234 10.8276C84.9414 10.7271 86.5795 10.9854 87.9378 11.6025C89.2962 12.2196 90.3702 13.1097 91.1599 14.2729C91.9492 15.4259 92.4493 16.7611 92.6604 18.2785L87.3609 18.5562C87.2973 17.7295 87.1198 17.0455 86.8282 16.504C86.5361 15.9525 86.1001 15.5502 85.52 15.2972C84.9399 15.0442 84.1804 14.9423 83.2417 14.9915C82.5855 15.0259 82.0215 15.1769 81.5497 15.4446C81.0779 15.7122 80.6942 16.117 80.3987 16.6588C80.1032 17.2006 79.8966 17.8947 79.779 18.741C79.671 19.5767 79.6477 20.58 79.709 21.7509L79.7733 22.9774C79.8347 24.1483 79.9577 25.144 80.1424 25.9643C80.3271 26.7846 80.5897 27.449 80.9301 27.9575C81.2705 28.4661 81.6947 28.8335 82.2025 29.06C82.7199 29.2758 83.3421 29.3646 84.0688 29.3266C84.8764 29.2842 85.5511 29.1223 86.0931 28.8409C86.6345 28.5493 87.0429 28.1332 87.3182 27.5924C87.593 27.0415 87.7188 26.3517 87.6956 25.5229ZM108.196 18.603L108.411 22.6912L97.0999 23.284L96.8857 19.1958L108.196 18.603ZM98.1986 10.3511L99.354 32.3972L94.0393 32.6757L92.8839 10.6297L98.1986 10.3511ZM111.311 9.66392L112.467 31.71L107.167 31.9877L106.012 9.94166L111.311 9.66392ZM122.685 13.7139L118.222 31.4083L112.514 31.7075L119.459 9.23691L123.078 9.04725L122.685 13.7139ZM128.049 30.8933L121.746 13.7631L120.807 9.16628L124.471 8.97425L133.772 30.5934L128.049 30.8933ZM127.406 22.6826L127.621 26.786L116.31 27.3787L116.095 23.2754L127.406 22.6826ZM141.234 8.09571L142.39 30.1418L137.075 30.4203L135.92 8.37424L141.234 8.09571ZM147.866 7.74814L148.081 11.8515L129.654 12.8172L129.439 8.71387L147.866 7.74814Z" fill="white"/>
<path d="M10.1236 6.70849L9.96042 7.73895L10.1236 6.70849ZM6.67889 28.4578L6.84209 27.4273L6.67889 28.4578ZM9.99975 28.9838L11.0302 29.147L11.1934 28.1165L10.163 27.9533L9.99975 28.9838ZM8.84161 36.2959L7.81115 36.1327L7.47307 38.2673L9.35478 37.2043L8.84161 36.2959ZM19.2045 30.4416L19.3677 29.4112L19.0082 29.3543L18.6913 29.5333L19.2045 30.4416ZM41.3262 11.6505L41.4894 10.62L41.3262 11.6505ZM5.98706 10.6258C6.2871 8.73138 8.06604 7.43891 9.96042 7.73895L10.2868 5.67804C7.25424 5.19772 4.40646 7.26675 3.92615 10.2994L5.98706 10.6258ZM3.95527 23.454L5.98706 10.6258L3.92615 10.2994L1.89436 23.1275L3.95527 23.454ZM6.84209 27.4273C4.94771 27.1273 3.65523 25.3483 3.95527 23.454L1.89436 23.1275C1.41405 26.1601 3.48308 29.0079 6.51568 29.4882L6.84209 27.4273ZM10.163 27.9533L6.84209 27.4273L6.51568 29.4882L9.83654 30.0142L10.163 27.9533ZM9.87207 36.4591L11.0302 29.147L8.96929 28.8205L7.81115 36.1327L9.87207 36.4591ZM18.6913 29.5333L8.32845 35.3876L9.35478 37.2043L19.7177 31.35L18.6913 29.5333ZM38.0447 32.3693L19.3677 29.4112L19.0413 31.4721L37.7183 34.4302L38.0447 32.3693ZM42.0181 29.4825C41.718 31.3769 39.9391 32.6694 38.0447 32.3693L37.7183 34.4302C40.7509 34.9106 43.5986 32.8415 44.079 29.8089L42.0181 29.4825ZM44.0498 16.6543L42.0181 29.4825L44.079 29.8089L46.1108 16.9807L44.0498 16.6543ZM41.163 12.681C43.0574 12.981 44.3499 14.7599 44.0498 16.6543L46.1108 16.9807C46.5911 13.9481 44.522 11.1004 41.4894 10.62L41.163 12.681ZM9.96042 7.73895L41.163 12.681L41.4894 10.62L10.2868 5.67804L9.96042 7.73895Z" fill="white"/>
<path fill-rule="evenodd" clip-rule="evenodd" d="M9.69408 29.0078C9.75384 29.245 9.82138 29.4795 9.89647 29.711L10.0002 29.0563L9.69408 29.0078ZM11.2325 35.018L19.2049 30.5141L37.8819 33.4723C40.3454 33.8625 42.6587 32.1817 43.0489 29.7182L45.0807 16.89C45.2132 16.0537 45.107 15.2347 44.8124 14.5023L45.173 13.1359L49.8192 21.1611C50.5077 22.0988 50.8359 23.3006 50.6395 24.5405L48.6077 37.3687C48.2176 39.8321 45.9042 41.5129 43.4407 41.1227L24.7637 38.1646L14.4008 44.0189L14.4018 44.0125L14.3861 44.0356L7.47992 38.334L11.2325 35.018Z" fill="white"/>
<path d="M18.5629 16.283C18.6404 15.7942 19.0994 15.4607 19.5882 15.5381L21.3583 15.8185C21.8471 15.8959 22.1806 16.3549 22.1032 16.8437L21.4023 21.269C21.3249 21.7578 20.8659 22.0913 20.377 22.0139L18.6069 21.7336C18.1181 21.6561 17.7846 21.1971 17.862 20.7083L18.5629 16.283Z" fill="white"/>
<path d="M31.6678 19.0369C31.9617 19.2163 32.1068 19.557 32.053 19.8971L31.8034 21.473C31.7001 22.1251 30.9418 22.4569 30.3564 22.1518C29.8145 21.8695 29.176 21.5929 28.6228 21.5053C28.0696 21.4177 27.3769 21.4834 26.7743 21.5845C26.1232 21.6937 25.5047 21.1438 25.6079 20.4917L25.8575 18.9158C25.9114 18.5757 26.1547 18.2965 26.4896 18.2167C27.1671 18.0553 28.3382 17.8312 29.1835 17.9651C30.0289 18.0989 31.0734 18.6739 31.6678 19.0369Z" fill="white"/>
<path d="M48.4771 4.49725C48.7731 4.05624 49.3981 3.99531 49.7736 4.37086L50.7284 5.3256C51.0973 5.69455 51.0461 6.30664 50.6209 6.60908L45.4991 10.2521C45.3483 10.3594 45.142 10.3421 45.0111 10.2112V10.2112C44.883 10.0831 44.8634 9.88219 44.9644 9.73173L48.4771 4.49725Z" fill="white"/>
<path d="M41.054 4.63894C40.9209 4.1067 41.3235 3.59113 41.8721 3.59113L43.1221 3.59113C43.6589 3.59113 44.0591 4.08615 43.9466 4.6111L42.9677 9.17953C42.9284 9.36303 42.7662 9.49412 42.5785 9.49412V9.49412C42.3959 9.49412 42.2367 9.36983 42.1924 9.19267L41.054 4.63894Z" fill="white"/>
<path d="M51.5574 10.3542C52.0896 10.2212 52.6052 10.6237 52.6052 11.1723L52.6052 12.4223C52.6052 12.9592 52.1102 13.3593 51.5852 13.2469L47.0168 12.2679C46.8333 12.2286 46.7022 12.0664 46.7022 11.8788V11.8788C46.7022 11.6961 46.8265 11.537 47.0037 11.4927L51.5574 10.3542Z" fill="white"/>
</svg>
