<svg width="319" height="52" viewBox="0 0 319 52" fill="none" xmlns="http://www.w3.org/2000/svg">
<path fill-rule="evenodd" clip-rule="evenodd" d="M61.4718 0H16.9652L0 16.8781H15.313V51.3836L64.7552 51.3423L80.8643 35.2333H64.59L61.4718 32.1277V0ZM28.7885 3.38717H18.3283L8.16722 13.5069H18.6587V47.9967H55.235L45.1353 37.8357H28.7885V3.38717ZM58.0967 3.38717H30.9193V35.7527H41.0874V30.8964L58.1877 47.9967H63.3509L72.7272 38.6205H63.1911L54.9659 30.4007H58.0967V3.38717ZM41.1288 13.5483H47.9855V20.281H41.1288V13.5483ZM92.8563 16.3331V33.2051H102.96V29.7491L96.4981 29.8063L96.6243 16.3331H92.8563ZM106.327 32.8451C107.287 33.2931 108.447 33.5171 109.807 33.5171C111.183 33.5171 112.351 33.2931 113.311 32.8451C114.271 32.3811 114.999 31.5731 115.495 30.4211C115.991 29.2691 116.239 27.6611 116.239 25.5971V16.3331H112.471V25.1171C112.471 26.2531 112.431 27.1651 112.351 27.8531C112.271 28.5251 112.127 29.0291 111.919 29.3651C111.727 29.7011 111.455 29.9251 111.103 30.0371C110.767 30.1491 110.335 30.2051 109.807 30.2051C109.295 30.2051 108.863 30.1491 108.511 30.0371C108.175 29.9251 107.903 29.7011 107.695 29.3651C107.503 29.0131 107.359 28.5011 107.263 27.8291C107.183 27.1411 107.143 26.2371 107.143 25.1171V16.3331H103.375V25.7891C103.375 27.7891 103.623 29.3571 104.119 30.4931C104.631 31.6131 105.367 32.3971 106.327 32.8451ZM121.595 32.6771C122.635 33.2371 123.827 33.5171 125.171 33.5171C126.019 33.5171 126.795 33.4291 127.499 33.2531C128.219 33.0931 128.843 32.9091 129.371 32.7011C129.899 32.4771 130.307 32.2851 130.595 32.1251L131.027 31.8611L129.947 29.0051L129.467 29.1971C129.147 29.3251 128.739 29.4771 128.243 29.6531C127.747 29.8131 127.211 29.9571 126.635 30.0851C126.075 30.2131 125.539 30.2771 125.027 30.2771C124.611 30.2771 124.267 30.2371 123.995 30.1571C123.723 30.0771 123.499 29.9731 123.323 29.8451C123.051 29.6371 122.787 29.1331 122.531 28.3331C122.275 27.5171 122.147 26.4051 122.147 24.9971C122.147 23.8611 122.195 22.9411 122.291 22.2371C122.387 21.5331 122.515 20.9891 122.675 20.6051C122.835 20.2051 123.019 19.9251 123.227 19.7651C123.403 19.6211 123.675 19.5171 124.043 19.4531C124.427 19.3731 124.947 19.3331 125.603 19.3331C125.795 19.3331 126.083 19.3491 126.467 19.3811C126.867 19.3971 127.299 19.4291 127.763 19.4771C128.227 19.5251 128.659 19.5651 129.059 19.5971C129.459 19.6291 129.755 19.6611 129.947 19.6931L130.355 16.6211C129.955 16.5091 129.443 16.4131 128.819 16.3331C128.211 16.2371 127.603 16.1651 126.995 16.1171C126.387 16.0531 125.875 16.0211 125.459 16.0211C124.435 16.0211 123.483 16.1491 122.603 16.4051C121.723 16.6451 120.955 17.0851 120.299 17.7251C119.643 18.3491 119.131 19.2451 118.763 20.4131C118.411 21.5811 118.235 23.0851 118.235 24.9251C118.235 27.0051 118.531 28.6771 119.123 29.9411C119.731 31.1891 120.555 32.1011 121.595 32.6771ZM132.759 25.4291L132.663 33.2051H136.455L136.383 23.8451L136.455 16.3331H132.663L132.759 25.4291ZM141.62 16.3331L136.988 33.2051H140.876L141.778 29.4611H146.357L147.26 33.2051H151.148L146.516 16.3331H141.62ZM145.653 26.2931L144.139 19.8371H143.997L142.483 26.2931H145.653ZM151.802 16.3331V33.2051H155.234L154.898 20.8451H155.042L160.226 33.2051H165.05V16.3331H161.618L161.954 28.6691H161.81L156.626 16.3331H151.802ZM171.405 33.1331C172.285 33.3891 173.213 33.5171 174.189 33.5171C175.181 33.5171 176.109 33.3891 176.973 33.1331C177.837 32.8771 178.597 32.4291 179.253 31.7891C179.925 31.1491 180.445 30.2611 180.813 29.1251C181.197 27.9731 181.389 26.5091 181.389 24.7331C181.389 22.9571 181.197 21.5011 180.813 20.3651C180.445 19.2291 179.925 18.3491 179.253 17.7251C178.597 17.0851 177.837 16.6451 176.973 16.4051C176.109 16.1491 175.181 16.0211 174.189 16.0211C173.213 16.0211 172.285 16.1491 171.405 16.4051C170.541 16.6451 169.773 17.0851 169.101 17.7251C168.445 18.3491 167.925 19.2291 167.541 20.3651C167.173 21.5011 166.989 22.9571 166.989 24.7331C166.989 26.5091 167.173 27.9731 167.541 29.1251C167.925 30.2611 168.445 31.1491 169.101 31.7891C169.773 32.4291 170.541 32.8771 171.405 33.1331ZM175.653 30.0131C175.253 30.1411 174.765 30.2051 174.189 30.2051C173.613 30.2051 173.117 30.1411 172.701 30.0131C172.301 29.8691 171.965 29.6131 171.693 29.2451C171.421 28.8611 171.221 28.3171 171.093 27.6131C170.965 26.8931 170.901 25.9491 170.901 24.7811C170.901 23.6131 170.965 22.6691 171.093 21.9491C171.221 21.2291 171.413 20.6851 171.669 20.3171C171.941 19.9331 172.285 19.6771 172.701 19.5491C173.117 19.4051 173.613 19.3331 174.189 19.3331C174.765 19.3331 175.261 19.4051 175.677 19.5491C176.093 19.6771 176.429 19.9331 176.685 20.3171C176.957 20.6851 177.157 21.2291 177.285 21.9491C177.413 22.6691 177.477 23.6131 177.477 24.7811C177.477 25.9331 177.413 26.8691 177.285 27.5891C177.157 28.3091 176.957 28.8611 176.685 29.2451C176.413 29.6131 176.069 29.8691 175.653 30.0131ZM189.338 29.8451V33.2051H193.058L193.034 29.8451H194.237H194.618H202.013V33.2051H205.733L205.709 29.8451H207.293V26.6051L205.709 26.6531V20.7971H202.853L202.037 26.7491L198.197 26.8931V26.7491L201.941 16.4531L198.365 15.9971L194.539 26.6075L193.034 26.6531V20.7971H190.178L189.362 26.7491L185.522 26.8931V26.7491L189.266 16.4531L185.69 15.9971L181.562 27.4451V29.8451H189.338ZM208.04 29.9171V33.2051H212.24V29.9171H208.04ZM217.981 33.1571C218.845 33.3971 219.757 33.5171 220.717 33.5171C221.757 33.5171 222.701 33.4211 223.549 33.2291C224.397 33.0531 225.069 32.8771 225.565 32.7011L226.333 32.4131V23.7251H220.213V26.4371L222.661 26.6079V30.1331C222.437 30.1811 222.173 30.2211 221.869 30.2531C221.581 30.2691 221.261 30.2771 220.909 30.2771C220.189 30.2771 219.645 30.2131 219.277 30.0851C218.909 29.9571 218.653 29.8291 218.509 29.7011C218.397 29.5731 218.253 29.3491 218.077 29.0291C217.917 28.7091 217.773 28.2131 217.645 27.5411C217.517 26.8531 217.453 25.9171 217.453 24.7331C217.453 23.1811 217.557 22.0291 217.765 21.2771C217.973 20.5091 218.205 20.0131 218.461 19.7891C218.637 19.6291 218.917 19.5171 219.301 19.4531C219.701 19.3731 220.269 19.3331 221.005 19.3331C221.853 19.3331 222.717 19.3731 223.597 19.4531C224.477 19.5331 225.237 19.6131 225.877 19.6931L226.309 16.6451C225.925 16.5491 225.429 16.4531 224.821 16.3571C224.213 16.2611 223.581 16.1811 222.925 16.1171C222.285 16.0531 221.693 16.0211 221.149 16.0211C220.013 16.0211 218.973 16.1411 218.029 16.3811C217.101 16.6051 216.301 17.0291 215.629 17.6531C214.957 18.2771 214.437 19.1571 214.069 20.2931C213.717 21.4291 213.541 22.9011 213.541 24.7091C213.541 26.5491 213.733 28.0451 214.117 29.1971C214.501 30.3491 215.021 31.2371 215.677 31.8611C216.349 32.4851 217.117 32.9171 217.981 33.1571ZM228.932 25.4291L228.836 33.2051H232.628L232.556 23.8451L232.628 16.3331H228.836L228.932 25.4291ZM237.745 19.4771L237.673 33.2051H241.441L241.369 19.4771L246.169 19.5491V16.3331H233.041V19.5491L237.745 19.4771ZM246.592 16.3331V33.2051H250.36L250.278 26.2451H255.866L255.784 33.2051H259.552V16.3331H255.784L255.866 23.0291H250.279L250.36 16.3331H246.592ZM265.29 32.8451C266.25 33.2931 267.41 33.5171 268.77 33.5171C270.146 33.5171 271.314 33.2931 272.273 32.8451C273.234 32.3811 273.962 31.5731 274.458 30.4211C274.953 29.2691 275.202 27.6611 275.202 25.5971V16.3331H271.434V25.1171C271.434 26.2531 271.393 27.1651 271.314 27.8531C271.234 28.5251 271.09 29.0291 270.882 29.3651C270.69 29.7011 270.418 29.9251 270.065 30.0371C269.729 30.1491 269.298 30.2051 268.77 30.2051C268.258 30.2051 267.826 30.1491 267.474 30.0371C267.138 29.9251 266.866 29.7011 266.658 29.3651C266.466 29.0131 266.322 28.5011 266.225 27.8291C266.146 27.1411 266.105 26.2371 266.105 25.1171V16.3331H262.337V25.7891C262.337 27.7891 262.586 29.3571 263.082 30.4931C263.594 31.6131 264.329 32.3971 265.29 32.8451ZM282.237 33.4451C282.957 33.4931 283.629 33.5171 284.253 33.5171C285.005 33.5171 285.733 33.4291 286.437 33.2531C287.141 33.0931 287.781 32.8131 288.357 32.4131C288.933 32.0131 289.389 31.4611 289.725 30.7571C290.061 30.0371 290.229 29.1251 290.229 28.0211C290.229 27.3811 290.133 26.8371 289.941 26.3891C289.765 25.9251 289.509 25.5491 289.173 25.2611C288.853 24.9571 288.493 24.7091 288.093 24.5171C288.006 24.4752 287.918 24.4352 287.829 24.3972V24.2452C287.869 24.2249 287.909 24.2036 287.949 24.1811C288.253 24.0051 288.541 23.7731 288.813 23.4851C289.101 23.1811 289.333 22.8131 289.509 22.3811C289.701 21.9331 289.797 21.4051 289.797 20.7971C289.797 19.5811 289.541 18.6291 289.029 17.9411C288.517 17.2371 287.829 16.7411 286.965 16.4531C286.101 16.1651 285.141 16.0211 284.085 16.0211C283.477 16.0211 282.821 16.0371 282.117 16.0691C281.413 16.1011 280.749 16.1411 280.125 16.1891C279.501 16.2371 278.989 16.2771 278.589 16.3091L277.989 16.3571L278.109 25.3091L278.037 33.0611L278.637 33.1331C279.053 33.1811 279.573 33.2291 280.197 33.2771C280.837 33.3411 281.517 33.3971 282.237 33.4451ZM285.933 29.9171C285.677 30.3011 285.125 30.4931 284.277 30.4931C283.813 30.4931 283.357 30.4771 282.909 30.4451C282.477 30.4131 282.125 30.3811 281.853 30.3491C281.835 30.3469 281.817 30.3449 281.8 30.3429L281.786 25.9091H283.989C284.709 25.9091 285.277 26.0611 285.693 26.3651C286.109 26.6531 286.317 27.2211 286.317 28.0691C286.317 28.9011 286.189 29.5171 285.933 29.9171ZM281.757 22.9811H284.181C284.885 22.9811 285.357 22.8291 285.597 22.5251C285.837 22.2051 285.957 21.6931 285.957 20.9891C285.957 20.2211 285.805 19.6931 285.501 19.4051C285.213 19.1171 284.717 18.9731 284.013 18.9731C283.517 18.9731 283.093 18.9811 282.741 18.9971C282.405 19.0131 282.077 19.0371 281.757 19.0691V22.9811ZM291.82 29.9171V33.2051H296.02V29.9171H291.82ZM298.209 25.4291L298.113 33.2051H301.905L301.833 23.8451L301.905 16.3331H298.113L298.209 25.4291ZM308.318 33.1331C309.198 33.3891 310.126 33.5171 311.102 33.5171C312.094 33.5171 313.022 33.3891 313.886 33.1331C314.75 32.8771 315.51 32.4291 316.166 31.7891C316.838 31.1491 317.358 30.2611 317.726 29.1251C318.11 27.9731 318.302 26.5091 318.302 24.7331C318.302 22.9571 318.11 21.5011 317.726 20.3651C317.358 19.2291 316.838 18.3491 316.166 17.7251C315.51 17.0851 314.75 16.6451 313.886 16.4051C313.022 16.1491 312.094 16.0211 311.102 16.0211C310.126 16.0211 309.198 16.1491 308.318 16.4051C307.454 16.6451 306.686 17.0851 306.014 17.7251C305.358 18.3491 304.838 19.2291 304.454 20.3651C304.086 21.5011 303.902 22.9571 303.902 24.7331C303.902 26.5091 304.086 27.9731 304.454 29.1251C304.838 30.2611 305.358 31.1491 306.014 31.7891C306.686 32.4291 307.454 32.8771 308.318 33.1331ZM312.566 30.0131C312.166 30.1411 311.678 30.2051 311.102 30.2051C310.526 30.2051 310.03 30.1411 309.614 30.0131C309.214 29.8691 308.878 29.6131 308.606 29.2451C308.334 28.8611 308.134 28.3171 308.006 27.6131C307.878 26.8931 307.814 25.9491 307.814 24.7811C307.814 23.6131 307.878 22.6691 308.006 21.9491C308.134 21.2291 308.326 20.6851 308.582 20.3171C308.854 19.9331 309.198 19.6771 309.614 19.5491C310.03 19.4051 310.526 19.3331 311.102 19.3331C311.678 19.3331 312.174 19.4051 312.59 19.5491C313.006 19.6771 313.342 19.9331 313.598 20.3171C313.87 20.6851 314.07 21.2291 314.198 21.9491C314.326 22.6691 314.39 23.6131 314.39 24.7811C314.39 25.9331 314.326 26.8691 314.198 27.5891C314.07 28.3091 313.87 28.8611 313.598 29.2451C313.326 29.6131 312.982 29.8691 312.566 30.0131Z" fill="#555555"/>
</svg>
